<?xml version="1.0" encoding="UTF-8"?>
<svg id="katman_1" data-name="katman 1" xmlns="http://www.w3.org/2000/svg" viewBox="0 0 700 700">
  <defs>
    <style>
      .cls-1, .cls-2, .cls-3, .cls-4, .cls-5 {
        stroke-width: 0px;
      }

      .cls-2 {
        fill: #f7ee1d;
      }

      .cls-3 {
        fill: #3b80a6;
      }

      .cls-4 {
        fill: #fff;
      }

      .cls-5 {
        fill: #ee3f21;
      }

      .cls-6 {
        font-family: Montserrat-Bold, Montserrat;
        font-size: 16.84px;
        font-weight: 700;
        isolation: isolate;
      }
    </style>
  </defs>
  <g>
    <path class="cls-1" d="m289.61,229.3c-4.93.54-16.34,2.29-21.35,3.3-18.75,3.8-33.11,9.05-48.6,17.9l-4.74,2.68-8.66-.43c-24.65-1.2-25.23-1.24-37-4.5-12.03-3.3-16.81-4.08-26.24-4.31-4.43-.12-9.05-.08-10.29.08-2.17.23-2.41.39-4.89,2.87-2.06,2.14-2.99,3.49-4.74,7.07-5.01,10.33-6.64,18.6-7.22,36.92-.27,8.7-.5,11.76-1.13,14.67-2.17,10.02-1.86,23.64.78,36.1.89,4.12,5.09,17.04,6.83,20.96l1.13,2.52-.7,4.27c-.97,5.67-1.36,27.06-.74,36.45,1.24,18.36,5.78,38.39,11.14,49.34,3.26,6.68,6.37,9.47,11.41,10.25,11.57,1.82,45.73,0,51.52-2.76,6.68-3.14,13.51-15.41,14.67-26.36.16-1.4.39-2.76.54-3.03.47-.74,16.96,4.08,17.97,5.28.27.35.97,2.48,1.51,4.74,2.72,10.87,9.2,24.15,15.88,32.26,9.43,11.57,20.81,19.06,34.16,22.55,10.13,2.68,27.56,1.79,43.87-2.21,7.1-1.75,15.14-4.39,18.75-6.13,7.69-3.77,18.13-14.36,23.41-23.84,1.01-1.79,2.14-3.38,2.52-3.49.39-.16,3.18-.16,6.25,0,23.37,1.13,53.34,1.94,99.3,2.68l27.37.47,2.14,1.44c4.77,3.22,10.4,5.47,17.66,7.03,3.42.78,5.09.85,13.78.85,10.79,0,16.11-.5,23.1-2.25,6.09-1.51,13.63-4.04,15.02-5.05.7-.5,2.02-1.32,2.95-1.79,5.05-2.68,14.25-10.95,18.83-16.93,10.4-13.59,15.72-31.95,14.29-49.22-.85-10.25-2.99-18.25-8.11-30.09-1.59-3.73-3.69-8.89-4.62-11.45-2.17-5.94-4.35-10.33-7.22-14.71-11.34-17.31-28.53-27.52-53.84-31.95-3.61-.62-6.48-.7-24.85-.7-11.41,0-26.44.16-33.42.35-6.95.19-13.78.23-15.18.08l-2.6-.27-6.87-10.56c-19.68-30.09-23.53-35.56-29.89-42.2-3.96-4.12-5.55-5.12-12-7.69-21.16-8.39-62.42-17.7-90.65-20.46-5.75-.58-27.99-1.09-31.25-.74Z"/>
    <path class="cls-4" d="m264.41,300.65c.82.31,28.22.31,38.51-.04l8.15-.23-2.29-1.48c-2.68-1.75-5.4-5.24-6.37-8.15-1.51-4.58-.62-9.2,2.6-13.2l1.86-2.29-1.67.04c-3.84.12-15.64,2.33-21.43,4-7.92,2.33-17.55,6.29-18.71,7.69-1.28,1.55-1.86,13.2-.66,13.66Z"/>
    <path class="cls-4" d="m453.55,310.43c.19-.23-1.05-2.33-3.65-6.09l-2.06-2.91-7.49-2.41c-14.4-4.58-32.42-9.86-41.27-12.11-4.89-1.2-9.59-2.37-10.44-2.48-1.48-.27-1.51-.27-1.24.82.66,3.03.7,6.64.08,8.54-1.32,3.96-4.43,7.3-8.31,8.89l-2.17.85,1.36.23c.74.12,4.89.47,9.28.82,10.87.85,44.68,3.88,56.25,5.05,5.2.54,9.55.89,9.67.82Z"/>
    <path class="cls-4" d="m322.68,299.56l-2.41,1.09,2.91.31c3.14.27,25.74,1.32,38.04,1.71l7.57.27-1.59-1.2c-2.33-1.71-4.77-4.31-5.63-6.02-1.79-3.42-1.28-9.59,1.01-12.89,1.48-2.14,1.32-2.45-1.28-2.48-.7-.04-5.59-.89-10.87-1.94-5.28-1.05-11.26-2.14-13.28-2.37-2.02-.27-5.47-.58-7.61-.74l-3.92-.23,1.63,1.82c4,4.46,5.01,10.95,2.52,15.88-1.4,2.68-4.39,5.55-7.1,6.79Z"/>
    <path class="cls-2" d="m454.09,314.7c-2.1-1.4-3.38-1.63-4.62-.82-.62.43-2.1.78-3.69.89-2.52.16-2.76.12-4.39-1.05-2.02-1.44-2.52-1.51-2.52-.23s-1.13,1.51-5.86,1.2c-3.14-.23-4.04-.16-5.05.35-1.4.74-1.75.58-1.13-.58.27-.5.31-1.01.12-1.2-.62-.62-8.27-2.68-12.15-3.26-4.43-.7-4.54-.7-4.89-.16-.47.78.5,1.2,4.15,1.75,5.2.78,5.78.93,5.55,1.48-.12.27.08.74.43,1.01,3.22,2.68-8.39,3.46-20.19,1.4-1.71-.31-4.58-.66-6.41-.78-3.26-.23-3.26-.19,1.94.74,2.87.54,8.93,1.71,13.39,2.6,7.65,1.55,8.54,1.67,14.56,1.63,3.53,0,10.17-.31,14.75-.7,6.02-.5,14.52-.78,30.55-.97,12.23-.16,22.32-.35,22.44-.5.16-.12-1.28-.58-3.18-1.05-3.42-.82-8.35-1.24-22.01-1.98-7.1-.39-7.38-.35-8.19.39-1.09,1.01-1.82.97-3.61-.16Z"/>
    <path class="cls-5" d="m409.52,314.43c.54.62,1.2.82,2.6.82,1.01,0,1.98-.19,2.1-.39.16-.23-1.16-1.09-3.07-1.98-2.02-.93-4.15-1.63-5.36-1.75l-2.06-.19,2.52,1.32c1.4.74,2.87,1.71,3.26,2.17Z"/>
    <path class="cls-5" d="m378.97,311.6c.16-.12,0-.5-.31-.82-.62-.62-3.69-1.28-3.34-.7.35.58,3.34,1.82,3.65,1.51Z"/>
    <path class="cls-2" d="m407.08,314.74c.31-.08-.85-.85-2.56-1.63-2.45-1.16-3.73-1.51-6.02-1.67-2.64-.16-2.87-.12-2.41.43,1.09,1.28,9.43,3.46,10.99,2.87Z"/>
    <path class="cls-3" d="m364.92,294.13c.66-.47.7-.7.27-1.55-.35-.78-.74-1.01-1.63-1.01-.97,0-1.16.16-1.16.93,0,2.14,1.01,2.76,2.52,1.63Z"/>
    <path class="cls-2" d="m386.7,319.36c.7-.54.66-.66-1.51-2.83l-2.25-2.29,1.59-1.28c2.33-1.86,2.06-2.76-1.09-3.61-1.32-.35-4.04-.93-5.98-1.24-5.12-.89-23.25-.7-24.22.27-.12.12,5.51.27,12.54.35,13.04.16,14.48.31,15.02,1.75.27.66-.7,2.68-1.44,2.95-.31.12-1.32-.16-2.25-.58-.93-.43-2.68-.85-3.84-.93-2.02-.19-2.1-.16-1.36.43,1.05.85,12.23,7.03,13.24,7.34.43.12,1.13,0,1.55-.31Z"/>
    <path class="cls-5" d="m418.69,263.07c-13.51-6.99-56.8-16.42-94.72-20.65-8.15-.89-34.55-1.13-39.48-.31-4.46.7-7.92,1.75-9.59,2.91-1.55,1.05-3.49,3.8-4.31,6.17-1.24,3.49-5.09,24.38-5.51,30.2l-.23,2.83.93-.39c.5-.19,2.52-1.01,4.43-1.79,4.77-2.02,13.86-5.05,19.1-6.41,7.69-2.02,14.01-2.76,24.96-2.99,13.28-.27,20.3.39,34.47,3.22,3.69.74,6.87,1.24,7.07,1.13.35-.23.19-1.86-.62-6.79-1.01-6.09.62-4.54,2.21,2.14,1.48,6.13.89,5.4,4.62,5.75,18.98,1.71,36.1,5.67,67.51,15.61,14.13,4.43,15.96,4.97,16.23,4.7.5-.47-18.21-27.76-21.35-31.13-1.67-1.79-3.14-2.87-5.71-4.19Z"/>
    <path class="cls-5" d="m358.9,321.85c-1.86,0-1.75.5.23,1.16,1.51.5,1.94.35,1.59-.58-.16-.39-.78-.58-1.82-.58Z"/>
    <path class="cls-3" d="m365.11,283.03c0,.74,1.82,2.6,2.17,2.21.16-.12.04-.78-.23-1.4-.82-1.98-1.94-2.45-1.94-.82Z"/>
    <path class="cls-3" d="m364.96,288.89c-.35-.54-2.45-.58-2.76-.04-.39.62.16,1.16,1.09,1.16,1.13,0,1.98-.58,1.67-1.13Z"/>
    <path class="cls-5" d="m349.74,309.62l1.75,1.44,6.13-.16c7.3-.16,6.44-.47,18.36,6.48,4.27,2.48,7.96,4.46,8.23,4.39.43-.16-3.42-2.52-13.74-8.54-1.48-.82-2.64-1.67-2.64-1.82,0-.5,1.05-.82,2.52-.82.74,0,1.44-.19,1.59-.43.19-.31-2.52-.35-9.78-.16l-10.05.27-1.32-1.36-1.32-1.4,1.51-.39c.85-.23,3.77-.58,6.52-.78,2.72-.19,5.09-.47,5.2-.58.31-.31-9.47-.19-11.37.12-1.94.35-3.3,1.05-3.3,1.79,0,.27.78,1.16,1.71,1.94Z"/>
    <path class="cls-3" d="m363.4,284.85c-.54.58-.16,1.71.74,2.14,1.28.58,2.14-.08,1.36-1.05-.7-.82-1.79-1.4-2.1-1.09Z"/>
    <path class="cls-3" d="m364.53,297c.78.62,1.75.23,1.75-.78,0-.89-1.2-1.09-1.9-.23-.35.39-.31.62.16,1.01Z"/>
    <path class="cls-3" d="m307.23,291.41c.35-.43.31-.58-.19-.78-1.4-.54-3.22.08-2.72.89.39.62,2.37.54,2.91-.12Z"/>
    <path class="cls-3" d="m306.69,295.06c.7,0,2.52-1.67,2.52-2.33,0-.58-.43-.47-1.82.39-1.32.82-1.71,1.94-.7,1.94Z"/>
    <path class="cls-3" d="m368.33,281.08h-1.32l.82,1.16c.47.62,1.16,1.16,1.55,1.16.85,0,1.32-1.09.74-1.79-.23-.31-1.05-.54-1.79-.54Z"/>
    <path class="cls-5" d="m499.67,317.3c.39.5,1.82,2.21,3.18,3.73,1.32,1.51,2.41,3.11,2.41,3.53,0,1.28-2.91,4.08-5.36,5.16-4.31,1.9-7.14,2.29-19.37,2.48-11.49.19-19.76-.16-29.62-1.28-16.27-1.82-33.08-5.05-48.68-9.32-3.46-.93-6.56-1.71-6.91-1.71-.39,0-1.28.54-2.02,1.16-1.82,1.63-3.42,2.21-6.87,2.52l-2.91.27-6.02-3.69c-3.3-2.02-7.88-4.66-10.17-5.9l-4.15-2.21-5.78.54-5.78.54-1.9-1.51c-2.37-1.9-4.77-4.23-4.77-4.62,0-.19.54-.66,1.2-1.05s1.05-.82.85-.93c-.16-.12-5.36-.39-11.57-.62-6.17-.23-12.38-.5-13.78-.62l-2.52-.19,5.24,2.64c6.06,3.03,9.98,5.36,17.97,10.64,10.71,7.07,9.59,6.6,31.33,13.32,4.58,1.4,16.38,5.2,26.2,8.39,9.82,3.22,19.26,6.17,20.96,6.56,4.27,1.01,9.43,1.48,22.32,1.94,28.69,1.05,33.39,1.24,41.93,1.79,5.01.31,14.91,1.09,21.93,1.75,8.93.85,15.96,1.28,23.18,1.4l10.37.19,4.58-2.41c5.43-2.83,10.95-6.44,14.64-9.59,3.46-2.91,4.31-4.04,3.96-5.32-1.24-4.93-16.89-13.28-31.76-16.89-9.51-2.33-17.04-3.14-28.61-3.14h-6.83l1.2.74c.66.39,1.51,1.16,1.94,1.71Zm-136.57,5.67c-.23,2.06-3.65,2.48-6.44.82-1.51-.93-1.67-2.37-.35-3.3,2.06-1.51,7.03.31,6.79,2.48Zm62.7,20.77c-1.44-1.09-1.51-2.83-.12-3.57,2.06-1.05,6.6.47,6.6,2.21,0,2.1-4.27,2.99-6.48,1.36Zm126.63-12.58c2.14-.89,5.75.04,6.21,1.55.89,2.87-6.37,3.8-7.65.97-.47-1.09,0-1.98,1.44-2.52Zm-28.61,15.14c1.94-1.79,4.66-1.59,6.99.5l.85.82-1.05,1.09c-.89.93-1.32,1.09-3.22,1.09s-2.37-.16-3.49-1.16l-1.36-1.16,1.28-1.16Z"/>
    <path class="cls-3" d="m309.99,277.67c-.85-1.4-1.24-1.51-1.94-.66-.39.47-.27.78.7,1.75,1.98,1.94,2.72,1.32,1.24-1.09Z"/>
    <path class="cls-5" d="m493.42,316.8c2.95,1.32,4.89,2.99,5.82,5.05.66,1.48.66,1.67.08,2.91-.7,1.48-2.91,2.91-6.09,3.92-1.82.54-4.19.7-15.68.85-7.92.08-15.8-.04-19.02-.27-2.99-.23-6.87-.5-8.58-.62-2.68-.16-2.83-.12-1.16.19,12.11,2.17,38.86,2.48,47.09.58,4.15-.97,7.45-3.14,7.45-4.93,0-.89-6.29-7.34-7.96-8.19-.66-.31-1.9-.7-2.72-.85-.85-.12-1.98-.31-2.52-.39l-.97-.16.97.43c.54.23,2.02.89,3.3,1.48Z"/>
    <path class="cls-3" d="m325.67,295.45c.97-.93,1.79-1.86,1.79-2.14s-.74-.89-1.67-1.32c-2.29-1.13-2.76-1.05-4.7.74-2.95,2.72-5.01,3.22-8.66,2.06-2.06-.66-2.06-.62-3.03.27-.54.5-.97,1.05-.97,1.24s1.16.89,2.64,1.59c5.01,2.33,10.37,1.44,14.6-2.45Z"/>
    <path class="cls-3" d="m303.66,283.57c-.31.82.5,1.4,1.94,1.4,1.55,0,1.71-.85.31-1.48-1.32-.62-2.02-.58-2.25.08Z"/>
    <path class="cls-3" d="m323.38,275.77c-1.24-.89-2.14-.58-2.14.74,0,.5.31.7,1.13.7,1.44,0,1.94-.74,1.01-1.44Z"/>
    <path class="cls-3" d="m318.76,274.95c-.89.5-1.98,2.99-1.48,3.49.35.35,1.36-.78,2.37-2.68.5-1.01.12-1.36-.89-.82Z"/>
    <path class="cls-3" d="m314.65,276.19c0,.74.16,1.44.39,1.59.35.23,1.55-1.71,1.55-2.52,0-.19-.43-.39-.97-.39-.85,0-.97.16-.97,1.32Z"/>
    <path class="cls-3" d="m311.54,277.47c1.05,1.75,1.55,1.59,1.55-.47,0-1.67-.04-1.75-1.16-1.75-1.36,0-1.48.5-.39,2.21Z"/>
    <path class="cls-3" d="m308.05,282.44c1.09-.35.97-1.44-.31-2.64-.58-.58-1.2-1.05-1.36-1.05-.23,0-1.44,2.06-1.44,2.48,0,.5,2.45,1.4,3.11,1.2Z"/>
    <path class="cls-4" d="m321.75,284c2.02-1.32,2.17-3.84.27-4.85-1.01-.54-1.63-.5-2.64.23-1.28.89-1.16,2.83.27,4.19,1.09,1.05,1.16,1.05,2.1.43Z"/>
    <path class="cls-3" d="m303.39,287.06c0,1.28.5,1.79,1.79,1.79,1.48,0,2.1-.82,1.32-1.75-.62-.78-3.11-.78-3.11-.04Z"/>
    <path class="cls-5" d="m553.59,333.65c1.13.27,2.91-.08,2.91-.58,0-.19-.85-.35-1.94-.35-2.06,0-2.6.54-.97.93Z"/>
    <path class="cls-5" d="m427.54,311.02c-2.02.08,2.6,1.67,5.12,1.75l2.52.12-1.94-.35c-1.05-.16-2.6-.58-3.38-.93-.82-.35-1.86-.62-2.33-.58Z"/>
    <path class="cls-5" d="m443.14,312.92c0,.23.93.39,2.06.35,1.59-.04,1.82-.12,1.05-.35-1.4-.47-3.11-.47-3.11,0Z"/>
    <path class="cls-5" d="m398.69,309.77c2.37,0,4.7-.16,5.24-.31l.97-.27-.97-.27c-.54-.12-4.46-.5-8.73-.82-10.56-.82-12.62-.89-12.42-.58.12.16.78.39,1.51.5,1.9.35,3.26,1.59,3.42,3.07.12,1.24.16,1.24,3.03,1.75,4.04.66,4.97.47,2.64-.66-3.57-1.67-2.1-2.33,5.32-2.41Z"/>
    <path class="cls-5" d="m417.48,321.11c-1.79-.27-6.83-1.16-11.18-2.02-4.35-.85-10.05-1.86-12.62-2.29-2.6-.43-5.09-.78-5.55-.78-.78,0-.78.08.31,1.13.62.62,1.13,1.32,1.13,1.51,0,.23-.62.78-1.36,1.24-1.82,1.13-1.71,1.55.31,1.55,1.32,0,2.1-.27,3.38-1.28.93-.66,1.98-1.48,2.41-1.79.62-.47,1.36-.35,5.67.85,9.28,2.64,24.26,6.13,26.01,6.09.35-.04-.66-.47-2.25-.97-1.59-.5-3.3-1.16-3.8-1.44l-.89-.47.85-.47c.74-.39.43-.5-2.41-.89Z"/>
    <path class="cls-2" d="m424.51,322.97c.7.43,9.01,2.06,14.95,2.91,12.11,1.75,35.09,2.91,44.06,2.29,4.93-.39,4.54-.39-7.03-.47-6.75,0-14.52-.23-17.28-.43-6.95-.54-19.84-2.17-26.55-3.38-7.26-1.24-8.93-1.44-8.15-.93Z"/>
    <path class="cls-5" d="m494.74,319.52l-20.65.08c-20.81.04-28.73.27-40.84,1.2-6.52.5-6.56.5-4.54.97,3.03.7,17.2,2.68,23.95,3.34,23.25,2.33,41.46,1.51,42.78-1.94.12-.35,0-1.28-.23-2.14l-.47-1.51Z"/>
    <path class="cls-2" d="m489.53,327.63c1.48.08,5.43-1.16,6.87-2.1.82-.54,1.59-1.44,1.71-1.98.16-.66.04-1.2-.39-1.63-.58-.58-.62-.54-.62.39,0,2.06-2.33,3.8-6.41,4.81-1.05.27-1.59.5-1.16.5Z"/>
    <path class="cls-2" d="m353.19,333.1c-2.33-.39-5.9-.85-7.96-1.01l-3.8-.27v1.4c0,2.33,4,9.36,8.07,14.21,2.72,3.18,7.1,4.85,14.75,5.63l2.02.19v-1.32c0-2.29-3.57-11.49-5.94-15.22-1.48-2.33-2.45-2.83-7.14-3.61Z"/>
    <path class="cls-4" d="m378.19,285.12c-.54.82-.54,1.01-.04,1.75.66.89,1.71,1.05,2.41.35.66-.66.58-1.63-.23-2.37-.97-.89-1.44-.82-2.14.27Z"/>
    <path class="cls-4" d="m370.12,353.68c3.69.97,27.6,2.45,36.34,2.25l5.43-.12v-2.02c-.04-3.03-.89-3.88-5.36-5.67-2.06-.78-4.27-1.55-4.93-1.67-1.09-.23-1.16-.19-1.16.89,0,1.59-1.59,3.11-4.08,3.8-1.59.47-4.08.58-12.46.5l-10.44-.12-.12-1.36c-.16-1.75.5-2.6,2.45-3.3.85-.31,1.28-.54.93-.58-.85,0-2.56-1.94-2.87-3.22-.19-.7-.04-1.75.39-2.87.54-1.4.58-1.82.16-2.06-.27-.19-2.52-.85-4.97-1.51-4.93-1.28-7.8-1.94-7.8-1.79,0,.04.85,1.9,1.9,4.12,2.06,4.35,4.31,10.44,4.31,11.61,0,1.51.89,2.72,2.29,3.11Z"/>
    <path class="cls-5" d="m527.42,348.24c1.24,0,1.63-.35,1.09-1.05-.54-.62-2.52-.66-2.91-.08-.35.58.54,1.13,1.82,1.13Z"/>
    <path class="cls-2" d="m391.12,348.24c-1.94,0-3.49.47-3.49,1.05,0,.5.7.58,4.58.43,2.48-.08,4.93-.35,5.36-.62,1.28-.7,1.48-1.63.5-2.64-.78-.82-1.36-1.13-4.04-2.1-.89-.35-1.01-.5-.58-.78.31-.23,1.28-.39,2.14-.39,1.63,0,2.87-.5,2.21-.89-.19-.16-2.29-.39-4.7-.5l-4.31-.27v1.13c0,1.63.39,2.02,2.48,2.48,2.33.5,3.34,1.05,3.34,1.71,0,.62-1.94,1.4-3.49,1.4Z"/>
    <path class="cls-2" d="m378.7,348.44c-2.99.43-3.49.58-3.49,1.16,0,.89.54.97,4.46.58,3.84-.39,5.32-.89,6.56-2.29,1.59-1.79,1.01-6.75-.97-7.69-.54-.27-2.37-.58-4.08-.7-3.61-.27-4.81.19-5.36,2.02-.54,1.94.43,3.11,2.76,3.42,3.22.43,3.61.54,3.61,1.36,0,1.01-1.36,1.86-3.49,2.14Zm3.3-6.02c-.31.93-1.82,1.05-2.56.16-.43-.54-.39-.7.23-1.16,1.48-1.09,2.8-.5,2.33,1.01Z"/>
    <path class="cls-3" d="m326.06,278.21c-1.01-.39-1.32-.27-1.32.54,0,.58.27.78.97.78,1.09,0,1.32-.93.35-1.32Z"/>
    <path class="cls-3" d="m383.47,289.16c1.44-.08,2.02-.27,2.02-.66,0-.31-.16-.58-.39-.62-.35-.08-.66-.04-2.8.43-1.75.35-.89.97,1.16.85Z"/>
    <path class="cls-3" d="m376.18,282.29c-.31-.54-.85-.54-1.16-.04-.12.23.04.5.39.62.74.31,1.16,0,.78-.58Z"/>
    <path class="cls-3" d="m381.81,291.41c-.74.27,1.75,1.67,2.99,1.71.7,0,1.67-.97,1.67-1.67,0-.5-3.26-.5-4.66-.04Z"/>
    <path class="cls-3" d="m381.57,283.03c-.31,0-.47.16-.35.39.12.19.5.39.82.39s.47-.19.35-.39c-.12-.23-.5-.39-.82-.39Z"/>
    <path class="cls-3" d="m381.49,295.25c1.55,1.44,2.8,1.75,3.18.74q.35-.85-.93-1.51c-.62-.31-1.71-.58-2.41-.58l-1.28.04,1.44,1.32Z"/>
    <path class="cls-3" d="m384.79,286.4c.5-.5.54-.74.12-1.2-.5-.66-.66-.7-1.44-.35-.7.27-.62,1.09.12,1.67.47.43.7.39,1.2-.12Z"/>
    <path class="cls-3" d="m373.03,281.71q-.74-.27-1.05,0c-.39.43.12.93.93.93.89,0,.97-.58.12-.93Z"/>
    <path class="cls-3" d="m325.75,281.55c-1.05,1.51-.82,1.98.85,1.67,1.82-.31,2.33-.78,1.79-1.67-.66-1.01-1.94-1.01-2.64,0Z"/>
    <path class="cls-5" d="m429.32,341.88c-.93-.35-2.87-.27-2.87.12s1.32.82,2.64.82c.97,0,1.16-.58.23-.93Z"/>
    <path class="cls-3" d="m324.16,285.74c0,.47.62.62,2.64.7,2.56.12,2.64.08,2.52-.78-.12-1.01-.7-1.13-3.42-.74-1.2.16-1.75.43-1.75.82Z"/>
    <path class="cls-3" d="m326.8,290.87c1.75.54,2.45.08,2.06-1.4-.23-.93-.43-1.01-2.37-1.01-3.34,0-3.18,1.36.31,2.41Z"/>
    <path class="cls-3" d="m367.25,297.93c-1.24.82-1.05,1.16,1.48,2.48,1.75.89,2.45,1.05,5.51,1.05,3.57,0,5.67-.66,7.65-2.45.82-.7.43-1.36-1.28-2.25-1.32-.66-1.13-.66-2.29.19-2.29,1.67-5.82,2.06-8.54.97-1.44-.58-1.63-.58-2.52,0Z"/>
    <path class="cls-4" d="m299.74,362.76c-.7-3.53-2.21-4.77-6.13-4.93l-2.41-.08-.97,3.38c-1.63,5.51-2.37,5.55-3.34.12-.35-2.06-.93-3.96-1.24-4.27s-.78-.54-1.01-.54c-1.9.19-4.27.74-4.7,1.09-.93.78-4.66,9.86-4.23,10.29.16.12.93.23,1.79.23,1.16,0,1.75-.27,2.6-1.16,1.2-1.28,2.72-1.51,3.49-.58.39.47,1.4.58,4.54.58s4.08-.12,4.23-.58c.31-.82,1.16-.74,1.79.16,1.09,1.51,6.13,4.31,6.13,3.34,0-.16-.47-1.13-1.05-2.17l-1.09-1.94.93-.7c.82-.62.89-.89.66-2.21Zm-18.21,1.24c-1.32-.31-1.63-1.4-.89-3.11.85-2.02,1.59-1.79,2.48.82.54,1.63-.16,2.68-1.59,2.29Zm14.05-.5c-.85-.04-1.82-.27-2.14-.54-.58-.47-.43-1.63.31-2.6.54-.66,1.09-.58,2.56.31,2.41,1.48,2.02,2.91-.74,2.83Z"/>
    <path class="cls-4" d="m260.49,365.36c-1.28,1.16-1.75,1.9-1.75,2.72,0,1.48-.47,1.67-1.75.66l-1.05-.82-1.55,1.59-1.59,1.55,2.25,2.37c1.59,1.67,2.37,2.87,2.68,4.08l.43,1.67,2.21-2.02,2.21-1.98.27-5.71c.19-4.27.16-5.71-.19-5.71-.23,0-1.24.74-2.17,1.59Z"/>
    <path class="cls-5" d="m274.08,319.56c-4.19-1.16-8.35.23-12.07,4.04-7.22,7.41-14.17,25.23-15.84,40.65-.12,1.24-.16,2.25,0,2.25.12,0,2.52-2.21,5.32-4.97,6.29-6.06,10.75-9.47,16.15-12.23,6.6-3.42,13.24-5.43,21.31-6.52,1.98-.23,3.69-.62,3.8-.82.35-.58-2.56-6.21-5.36-10.37-3.88-5.9-9.55-10.99-13.32-12.03Z"/>
    <path class="cls-4" d="m270.97,362.26c1.75-.78,2.76-2.02,2.37-2.99-.12-.31-.43-.54-.74-.54-.43,0-7.57,3.3-8,3.69-.23.27.85,9.94,1.16,10.13.43.23,6.52-2.41,7.45-3.22.7-.66.85-1.9.31-2.76-.27-.47-.54-.43-1.51.08-.66.35-1.48.62-1.82.62-1.09,0-.39-.93,1.28-1.75,1.2-.58,1.63-1.01,1.63-1.63,0-1.05.12-1.05-1.94-.31-2.87,1.01-3.07-.04-.19-1.32Z"/>
    <path class="cls-5" d="m304.05,384.27c-.27-.16-1.09-.5-1.82-.7-.74-.23-3.18-.5-5.43-.58-3.3-.16-4.5-.08-6.21.5-10.09,3.38-17.47,11.69-21.24,23.95-1.01,3.34-1.05,3.84-1.09,12.23,0,8,.08,9.01.89,11.84,2.33,8.07,5.4,13.59,10.17,18.44,4.93,5.01,9.12,7.3,15.06,8.19,6.29.97,12.15-.7,17.51-4.93,3.69-2.91,4.35-3.96,3.38-5.28-.35-.5-1.16-1.59-1.79-2.45-.62-.85-1.13-1.82-1.13-2.14-.04-.31.85-1.98,1.9-3.69,2.06-3.3,2.25-3.92,1.4-5.05-.5-.7-.62-.66-2.72.74-3.49,2.33-6.06,3.07-9.82,2.87-4.15-.23-7.49-1.79-10.83-5.16-9.63-9.59-7.61-26.48,3.84-32.22,2.52-1.28,2.95-1.36,6.44-1.36,2.06,0,3.96-.16,4.27-.35.43-.27.27-1.55-.89-7.45-.82-3.92-1.67-7.26-1.9-7.41Zm-7.18,62.15l.89-1.16,3.26.23c5.32.35,6.25,1.2,6.25,5.82,0,3.96-.62,4.58-4.43,4.77-4.66.23-6.33-.12-7.26-1.59-1.32-2.17-.82-5.36,1.28-8.07Zm-26.67-18.67c-1.67-1.94-2.29-7.73-1.16-11.37.27-1.05.78-2.02,1.05-2.17,1.55-1.01,7.53,0,8.89,1.44.89.93.93,1.24.93,6.09v5.09l-1.9.97c-1.48.78-2.52,1.01-4.43,1.01-2.21,0-2.56-.12-3.38-1.05Zm17.04,10.99c3.69,3.96,3.8,5.2.85,8.23-2.1,2.17-3.88,3.14-5.16,2.8-1.98-.47-6.25-5.67-6.91-8.39-.35-1.36,1.16-3.11,3.77-4.39,1.13-.54,2.68-1.01,3.46-1.01,1.28,0,1.71.31,4,2.76Zm-.27-37.97c-1.4,2.33-5.05,5.71-6.21,5.71-1.24,0-5.71-2.99-6.44-4.31-.35-.66-.47-1.44-.27-2.41.31-1.71,3.3-5.78,5.24-7.07.74-.54,1.71-.97,2.14-.97,1.86,0,5.09,3.26,6.13,6.21.31.97.23,1.44-.58,2.83Zm15.45-5.9c-.85.16-2.91.35-4.54.39-2.72.12-3.11,0-4-.82-.54-.5-1.28-1.79-1.71-2.87-1.59-4.39-1.36-6.44.82-7.45.89-.39,2.17-.5,4.04-.43,5.09.27,6.75,2.14,6.87,7.73l.08,3.18-1.55.27Z"/>
    <path class="cls-4" d="m282.27,480.35c-1.24-.58-1.44-.58-2.33,0-1.28.85-1.36.85-1.79-.31-.19-.5-1.01-1.36-1.82-1.9-.82-.54-1.98-1.09-2.6-1.24-.93-.23-1.09-.16-.89.35.12.35.43,1.36.66,2.21l.43,1.63-2.02,1.82c-1.67,1.51-1.98,1.94-1.71,2.72.54,1.75,6.33,4.7,9.28,4.7.58,0,4.12-7.22,4.12-8.46,0-.62-.39-1.05-1.32-1.51Zm-5.43,5.9c-.89,0-1.59-1.05-1.28-1.9.31-.74.66-.78,1.59-.12.89.66.66,2.02-.31,2.02Z"/>
    <path class="cls-5" d="m299.5,468.71c8.93-3.22,17.12-10.4,21.31-18.67,1.48-2.87.7-2.17-1.71,1.59-4.19,6.44-11.1,12.5-16.96,14.91-6.79,2.76-15.26,2.79-22.05.08-5.9-2.37-13.04-8.31-16.96-14.13-3.53-5.28-6.44-12.31-7.96-19.33-1.24-5.82-1.24-16.96.04-22.79,3.34-15.49,12.19-27.14,24.26-31.91,2.99-1.16,3.46-1.24,9.39-1.4,6.17-.16,6.29-.16,9.71,1.05,1.86.62,3.49,1.13,3.53,1.05.23-.23-3.65-1.75-5.9-2.37-9.94-2.56-21.12.85-29.35,9.08-3.8,3.8-6.17,7.26-8.89,12.97-4,8.42-4.85,12.54-4.81,23.18,0,8.85.58,12.69,2.91,19.29,3.22,9.05,9.32,17.62,16.11,22.48,3.3,2.37,8.39,4.7,11.8,5.43,4.04.85,12.5.58,15.53-.5Z"/>
    <path class="cls-5" d="m211.81,368.12c-.12,2.95,2.33,27.21,2.91,29.15.12.39-.04.78-.43.89-.7.27-3.84-2.06-11.26-8.35-2.76-2.37-5.24-4.31-5.47-4.31s-.97,2.76-1.67,6.09c-2.21,11.06-3.34,13.7-5.75,13.7-2.1,0-2.1.27.31,6.68s2.99,8.46,2.45,8.46c-.19,0-2.1-1.51-4.23-3.38-4.46-3.84-12.15-10.05-15.45-12.5-2.72-1.98-4.08-2.6-7.69-3.34-4.27-.89-5.28-1.55-7.22-4.54-1.48-2.29-2.83-3.38-2.83-2.29,0,1.51,1.05,4.46,1.75,4.93.47.31,4.04,1.94,7.92,3.65,11.14,4.85,12.15,5.59,16.73,12.42,1.67,2.45,3.34,4.77,3.77,5.12,1.98,1.79,5.94,3.03,28.38,8.89,11.34,2.95,13.78,3.49,14.09,3.03.19-.31.35-4.74.35-9.86.04-13.82.58-18.25,3.49-27.68l1.51-4.89-3.61-3.88c-8.11-8.7-18.05-18.63-18.05-18.01Z"/>
    <path class="cls-4" d="m253.5,380.27c-1.01-1.63-1.24-3.07-.58-3.49.58-.35.47-1.63-.19-2.91-.35-.66-.78-1.16-1.01-1.16-.85,0-6.56,6.95-6.56,7.96,0,.31.43,1.01.93,1.63.82.93,1.01,1.01,1.55.54.54-.47.78-.43,1.63.39.54.5,1.36,1.51,1.79,2.25l.82,1.32,1.32-1.4c1.55-1.71,1.63-2.99.31-5.12Z"/>
    <path class="cls-3" d="m174.5,413.19c1.16,2.64,1.36,4.66.62,6.91-.39,1.09-.58,2.1-.47,2.17.31.35,6.83-.31,6.83-.66,0-.39-5.01-7.88-6.17-9.24-1.2-1.4-1.59-1.01-.82.82Z"/>
    <path class="cls-4" d="m237.7,420.02c4.74,1.79,5.05,1.86,5.36.66.12-.54.12-1.59,0-2.33-.23-1.24-.47-1.44-4.31-3.11-2.25-.97-4.27-1.79-4.46-1.79-.5,0-.5,2.14,0,3.96.39,1.32.62,1.51,3.42,2.6Z"/>
    <path class="cls-5" d="m298.3,401.58c-9.08,3.22-12.81,15.53-7.8,25.78,1.51,3.14,4.7,6.41,7.69,7.88,2.33,1.16,2.64,1.2,6.29,1.05,3.53-.12,4-.23,6.06-1.48,1.2-.74,2.64-1.79,3.14-2.33l.93-.97-1.51-6.02c-.82-3.3-2.21-9.43-3.11-13.59-1.79-8.39-2.45-10.13-3.88-10.52-1.67-.47-6.33-.35-7.8.19Z"/>
    <path class="cls-4" d="m242.01,423.75c-1.86-1.01-2.48-.78-2.91,1.05-.39,1.79-.7,1.9-3.65,1.44-.93-.16-.97-.12-1.09,2.64-.08,2.37,0,2.79.58,2.99,1.67.5,8.39,2.17,8.73,2.17.43,0,.08-8.04-.35-9.2-.12-.31-.7-.78-1.32-1.09Z"/>
    <path class="cls-4" d="m244.84,384.62l-1.13-1.09-.66,1.01c-1.01,1.55-1.2,3.14-.47,4.27.39.58.62,1.36.54,1.82q-.12.78-1.09,0c-1.24-.97-1.79-.74-2.76,1.16l-.78,1.55,1.09,1.59c.58.89,2.1,2.64,3.3,3.92,2.48,2.6,2.91,2.56,3.8-.16.47-1.44.47-1.67-.31-2.72-.85-1.13-1.16-2.72-.54-2.72.19,0,.66.27,1.09.58,1.28.97,1.94.7,2.68-1.16l.66-1.79-2.14-2.6c-1.2-1.44-2.68-3.11-3.3-3.69Z"/>
    <path class="cls-4" d="m240.85,401.08c-.58.93-.39,4.7.23,5.4.54.58.54.7,0,1.16-1.2,1.01-1.67-.16-1.82-4.46-.12-3.49-.23-4.12-.89-4.62-.43-.35-.89-.62-1.05-.62-1.05-.04-1.98,9.98-1.13,12.54.62,1.82,2.1,2.99,3.8,2.99,2.8,0,3.73-1.32,4.54-6.44l.54-3.38-1.4-1.2c-1.94-1.75-2.45-1.98-2.83-1.36Z"/>
    <path class="cls-5" d="m596.91,377.55c-.62-5.09-2.14-12.54-3.14-15.72-7.14-21.93-25.12-38.63-47.67-44.26-4.35-1.09-15.18-2.87-15.53-2.56-.08.08.89.43,2.14.78,14.32,4,24.34,8.93,29.97,14.79,4.19,4.35,4.12,5.43-.7,10.02-5.86,5.55-17,12.23-22.52,13.51-2.99.66-13.74.27-31.29-1.16-25.43-2.1-32.18-2.48-55.71-3.14-14.6-.43-23.45-.93-27.91-1.59-3.07-.47-10.09-2.41-18.75-5.2-2.91-.97-5.51-1.75-5.75-1.75s-.39.47-.31,1.05c.16,1.28.89,1.71,6.91,4.04,2.25.85,4.5,1.94,5.01,2.41,2.21,2.06,3.14,6.87,1.63,8.39-1.09,1.09-4.74,1.36-14.01,1.09-20.38-.66-42.2-3.3-47.01-5.75-4.23-2.14-12.5-14.29-13.08-19.18-.16-1.44-.04-1.75.78-2.29,2.99-1.94,10.83-.89,31.17,4.23,5.47,1.4,10.56,2.52,11.22,2.52.7,0,2.29.35,3.53.78,1.94.66,9.86,1.75,10.21,1.4.35-.35-14.79-5.28-31.13-10.13-12.11-3.61-13.2-4.12-22.01-9.94-13.01-8.62-18.28-11.49-26.44-14.48l-4.97-1.79h-48.06l-1.16-1.09c-1.55-1.44-1.86-4.27-1.24-11.53,1.63-19.95,5.82-40.76,9.08-45.19,2.06-2.76,5.09-4.58,10.21-6.06,13.39-3.88,40.45-2.33,78.34,4.5,24.73,4.46,48.91,11.03,59.78,16.23,6.44,3.07,6.87,3.57,25.51,31.41,7.07,10.52,12.93,19.02,13.01,18.94.31-.31-3.3-6.02-12.89-20.42-18.52-27.72-22.09-32.07-29.31-35.87-6.75-3.57-29.31-9.82-51.05-14.17-16.65-3.3-36.14-6.29-45.81-7.03-6.33-.47-28.84-.43-33.39.04-5.82.62-17.08,2.68-24.07,4.43-18.79,4.66-35.64,12.19-49.65,22.24-3.84,2.76-7.92,6.33-14.4,12.58-2.8,2.68-5.43,5.05-5.82,5.24-.54.27-1.94.23-4.46-.16-4.43-.62-32.14-1.13-32.96-.58-.43.31-.35.93.31,3.61.47,1.75.82,3.8.82,4.5,0,1.48.23,1.55,1.55.47,3.8-3.07,10.48-6.87,13.2-7.53,1.48-.35,4.19,1.67,7.76,5.71,6.17,6.95,13.16,16.96,18.05,25.82,3.22,5.82,4.04,6.56,7.26,6.91,4.5.5,4.39.58,6.68-4.31,2.29-4.97,2.8-5.86,3.14-5.55.12.16,1.28,4.15,2.56,8.93,5.4,20.3,17.16,55.44,21.2,63.39l1.16,2.33.58-.97c5.98-9.74,5.67-8.85,6.52-17.82,1.2-12.73,5.55-25.89,11.41-34.74,2.52-3.77,7.88-9.01,10.52-10.29,5.59-2.72,12.35-.58,19.06,6.02,10.05,9.94,16.38,26.86,24.81,66.58,6.95,32.88,9.24,41.38,13.12,49.11,4.43,8.81,8.66,11.69,21.27,14.36,22.36,4.7,69.57,6.91,150.97,6.95,37.97.04,39.25,0,47.71-.85,21.55-2.21,32.34-5.32,39.02-11.34,6.72-6.02,12.77-23.8,15.06-44.06.58-5.51.58-21.78-.04-26.79Zm-393.8-86.49c-1.05.66-9.82-10.91-9.43-12.42.82-3.26,10.33-13.08,17.74-18.28,2.72-1.9,5.67-3.88,6.56-4.35.93-.5,1.82-.82,1.98-.7.43.23.47.16-5.47,12-2.72,5.32-6.25,12.81-7.92,16.62-1.67,3.8-3.22,6.99-3.46,7.14Zm50.82-25.31c-2.37,14.87-6.6,30.63-9.28,34.63-1.79,2.64-2.48,2.91-6.91,2.68-7.84-.43-19.1-3.42-27.02-7.26-4.85-2.33-5.01-2.6-3.46-7.14,1.51-4.46,7.26-18.05,10.52-24.85,3.65-7.73,5.24-10.17,7.07-10.95,1.94-.78,10.87-2.72,14.67-3.14,4.35-.5,4.62-.5,8.46-.08,3.77.43,5.4,1.09,6.17,2.45.74,1.24.58,8.46-.23,13.67Zm47.67,64.91c-.23.08-1.44-1.75-2.68-4.04-2.87-5.32-5.2-9.05-5.67-9.05-.19,0-.62.43-.97.97-.35.54-.82.97-1.01.97-.23,0-1.71-1.24-3.34-2.76-1.63-1.51-3.88-3.49-5.01-4.39-1.13-.85-2.06-1.79-2.06-2.02,0-.7,3.77-3.96,6.02-5.24,1.05-.62,2.25-1.13,2.6-1.13s1.16.62,1.82,1.44l1.16,1.4,1.75-.89c1.44-.78,1.82-.85,2.33-.43,1.71,1.44,4.66,10.02,5.28,15.41.5,4.43.39,9.55-.23,9.74Zm254.35,53.34c-.5.93-1.2,3.03-1.51,4.66-3.46,16.89-18.09,28.26-42.9,33.31-8.81,1.82-13.16,2.1-29.35,1.86-12.93-.16-15.06-.27-21-1.2-11.84-1.79-20.26-3.73-29.5-6.72-15.72-5.12-24.19-9.9-31.83-18.09-6.17-6.6-10.71-14.21-13.24-22.32-.74-2.37-1.55-4.35-1.75-4.35s-1.36.62-2.52,1.36-2.37,1.36-2.68,1.36c-.54,0-.54-.16.04-1.2,1.51-2.95,5.71-5.98,9.9-7.1,3.46-.97,8.62.16,9.67,2.1.35.66.19.74-1.24.85l-1.67.12,2.33,1.51c10.09,6.64,32.96,12.66,59.59,15.72,14.44,1.67,17.43,1.79,40.96,1.79,19.22,0,23.95-.12,29.5-.7,11.03-1.16,20.73-2.72,27.06-4.35l1.09-.27-.93,1.67Zm35.4-21.16c-1.28,1.32-3.77,1.59-17.74,2.06-10.68.35-11.1.35-12.58-.39-2.29-1.2-4.77-3.69-5.9-5.9-1.4-2.87-1.28-3.84.7-5.43,3.22-2.68,13.32-8.27,18.32-10.21,4.08-1.59,6.64-1.09,9.51,1.79,3.61,3.61,8.5,12.54,8.62,15.76.04,1.01-.23,1.63-.93,2.33Z"/>
    <path class="cls-4" d="m532.55,400.19c-4.89,1.59-12.77,3.3-19.99,4.35-5.4.78-6.83.82-28.15.66l-22.44-.16-7.96-1.2c-23.49-3.61-41.93-8.93-56.64-16.34-1.28-.66-2.45-1.2-2.56-1.2-.66,0,2.8,4.74,6.72,9.16,7.49,8.58,20.69,15.18,39.68,19.95,15.41,3.88,28.46,5.47,44.64,5.47,13.01.04,22.9-1.01,32.03-3.34,6.48-1.63,14.44-4.97,18.4-7.69l1.67-1.16-.16-4.23c-.23-5.82-.27-5.86-5.24-4.27Z"/>
    <path class="cls-3" d="m250.28,252.36c-4.89-1.36-24.07,1.01-25.82,3.22-2.64,3.38-16.03,34.01-15.72,36.06.39,2.68,16.11,7.65,28.07,8.85,4.7.47,5.05.35,6.41-2.33,2.99-5.98,9.32-34.4,9.32-41.97,0-2.52-.47-3.34-2.25-3.84Z"/>
    <path class="cls-4" d="m496.52,390.36c-24.65,0-26.4-.04-33.58-.89-22.87-2.68-40.22-6.29-52.21-10.83-6.02-2.29-9.59-4.08-14.29-7.26-3.07-2.02-4.12-2.56-5.24-2.52-2.02.04-3.18.66-3.18,1.75,0,1.71,3.03,9.55,4.12,10.68,2.14,2.21,13.43,7.41,23.84,10.99,18.09,6.21,38.63,9.82,61.26,10.71,10.91.43,31.37-.12,37.77-.97,9.36-1.32,17.94-3.34,20.38-4.89,1.55-.93,3.61-4.77,3.92-7.26l.19-1.86-4,.66c-9.32,1.59-12.19,1.71-38.98,1.71Z"/>
    <path class="cls-2" d="m293.84,308.3c-1.13,1.05-2.21.7-3.26-1.05-.93-1.44-1.63-1.59-3.11-.66-1.82,1.2-4.27,3.26-4.27,3.61,0,.43,7.18,6.6,7.65,6.6.19,0,.62-.54.93-1.24.31-.66.74-1.28.97-1.36.43-.16,5.16,6.83,6.72,9.86.85,1.75,1.59,2.45,1.59,1.55,0-2.68-2.76-13.59-4.12-16.27-1.05-2.06-1.79-2.29-3.11-1.05Z"/>
    <path class="cls-3" d="m171.59,412.38c-1.16-.93-1.55-1.01-2.76-.43-1.63.82-2.37,3.11-2.17,6.87.08,1.63,2.25,3.96,3.65,3.96,1.79,0,3.42-2.52,3.42-5.24,0-2.25-.78-4.08-2.14-5.16Z"/>
    <path class="cls-4" d="m568.42,347.62c-5.86,3.03-8.5,4.62-10.68,6.37-1.48,1.16-1.67,1.51-1.48,2.48.27,1.4,2.21,4.23,3.61,5.36,1.01.78,1.32.82,13.16.7,6.68-.08,12.27-.23,12.38-.39.66-.66-4.81-9.2-8.77-13.7-3.26-3.73-2.72-3.69-8.23-.82Z"/>
    <path class="cls-2" d="m581.97,345.99c-1.94-1.82-2.29-2.02-3.88-2.02-1.24,0-1.79.16-1.79.5,0,.31,1.13,2.06,2.52,3.88,3.22,4.27,6.95,9.94,7.8,11.92.78,1.71,1.67,2.21,2.87,1.55,1.13-.58.97-2.02-.54-5.47-1.71-3.96-4.39-7.88-6.99-10.37Z"/>
    <path class="cls-4" d="m314.02,480.93c.23-1.79.35-1.94,1.13-1.67,2.14.66,2.48.62,3.69-.39.7-.58,1.24-1.36,1.24-1.75s-.66-1.55-1.48-2.6c-1.94-2.41-2.41-3.34-2.41-4.54s-.23-1.24-1.94-.04c-1.9,1.36-2.25,2.25-3.11,7.96-.43,2.8-.93,5.43-1.16,5.82-.89,1.63-1.16.66-1.16-3.88s0-4.66-.93-4.66c-.5,0-2.37.74-4.15,1.63-2.45,1.28-3.3,1.9-3.38,2.52-.16,1.09.5,1.16,2.52.31,1.59-.66,3.22-.78,3.22-.19,0,.19-.93.93-2.1,1.55-2.25,1.28-3.84,2.76-2.37,2.17,1.28-.5,3.3-.74,3.3-.43,0,.78-1.48,1.82-3.38,2.37-1.86.54-2.1.74-2.48,2.14-.74,2.41-.16,2.64,3.22,1.32,1.55-.62,4.77-2.14,7.14-3.42l4.35-2.29.23-1.94Z"/>
    <path class="cls-4" d="m321.52,462.38c-1.01.89-1.71,1.82-1.55,2.06.12.19.62,1.51,1.13,2.95l.89,2.52-.78,1.28c-.89,1.44-.7,3.49.35,3.88.78.31,5.51-4.58,6.72-6.91.82-1.63.82-1.71.12-2.99-.62-1.13-.85-1.28-1.82-1.09-.93.19-1.2.04-1.75-.97-1.44-2.6-1.36-2.56-3.3-.74Z"/>
    <path class="cls-3" d="m214.33,262.53c.7-1.51,1.16-2.8.97-2.8-.16,0-2.29,1.63-4.74,3.65-5.01,4.12-13.08,12.23-14.09,14.17q-.66,1.28.62,3.42c1.67,2.76,4.5,6.33,5.01,6.33.19,0,1.2-1.79,2.21-4,.97-2.17,3.34-7.1,5.24-10.95,1.9-3.84,4.04-8.27,4.77-9.82Z"/>
    <path class="cls-4" d="m293.57,480.43c-1.24,1.09-2.68,1.24-3.38.39-.35-.43-1.05-.58-2.29-.5l-1.79.12v10.48l2.29.27c3.46.43,3.77.16,7.1-6.21l2.91-5.51h-1.9c-1.44.04-2.14.23-2.95.97Zm-2.8,7.07c-.82.93-1.01,1.01-1.36.5-.43-.66-.5-2.72-.16-3.65.27-.66,1.59-.82,2.45-.27.74.47.31,2.02-.93,3.42Z"/>
    <path class="cls-4" d="m333.08,457.33c.82.89,1.75,1.01,1.75.23s-.47-1.05-4.15-2.68c-1.75-.78-3.34-1.44-3.49-1.44s-.7.7-1.2,1.59l-.93,1.59,1.09,1.59c2.06,3.14,4.08,5.71,4.46,5.71.23,0,.74-.82,1.2-1.82.74-1.67.74-1.86.16-3.11-.35-.7-.62-1.55-.62-1.86,0-.82.93-.7,1.75.19Z"/>
    <path class="cls-5" d="m297.14,380.85c3.14-.04,3.26-.08,2.14-.54-.66-.31-2.06-.7-3.11-.93-2.83-.62-8.58-.85-11.22-.47-7.26,1.01-15.41,6.75-20.5,14.48-2.64,4-3.77,6.17-5.24,10.44-2.14,6.02-2.6,9.28-2.6,18.36.04,7.53.12,8.46,1.05,12.23,2.56,10.13,6.6,17.59,12.89,23.6,5.24,5.05,11.06,7.88,17.66,8.62,7.88.89,14.56-1.24,21.16-6.75,2.1-1.79,7.34-7.65,7.07-7.92-.12-.08-1.28.82-2.64,2.06-4.74,4.27-11.72,6.72-17.7,6.21-10.37-.85-19.8-7.88-25.27-18.75-3.22-6.37-4.66-12.07-4.97-19.68-.27-6.52.31-10.83,2.29-16.81,4.89-14.75,16.11-24.11,29-24.15Z"/>
    <path class="cls-4" d="m344.65,467.74c-4.85,7.34-10.75,13.47-17.86,18.56-3.46,2.48-11.14,6.68-13.78,7.53-.82.23-1.55.62-1.67.82-.43.62,5.36-1.63,9.16-3.61,9.78-5.09,20.73-15.49,25.82-24.57.78-1.4,1.32-2.64,1.24-2.72-.08-.12-1.4,1.71-2.91,4Z"/>
    <path class="cls-5" d="m143.52,344.32l-.23-2.02c-.43-3.18-3.65-17.51-4.74-20.85-1.86-5.98-4.39-10.6-6.41-11.8-1.4-.82-2.37-.78-3.61.19-1.32,1.01-3.49,5.28-4.31,8.42-1.75,6.79-1.79,25.51-.04,33.62.93,4.39,1.2,5.24,1.55,4.85.04-.08.85-1.44,1.79-3.03,3.46-5.98,6.29-7.76,14.52-9.16l1.48-.23Z"/>
    <path class="cls-5" d="m184.94,411.87c2.87,2.37,5.28,4.23,5.36,4.15.19-.16-3.11-8.04-4-9.55-.43-.74-1.16-1.44-1.71-1.55-4.74-1.32-5.55-1.71-6.79-2.95-.82-.82-1.36-1.75-1.36-2.29,0-1.24-.7-1.24-1.13-.04-.19.5-.85,1.24-1.4,1.67l-1.05.74,3.42,2.76c1.9,1.51,5.78,4.7,8.66,7.07Z"/>
    <path class="cls-5" d="m417.13,314.28c-.54-.66-1.16-.78-1.16-.23,0,.19.27.47.62.58.93.35,1.09.27.54-.35Z"/>
    <path class="cls-5" d="m136.22,384c-.78,5.4-.58,18.4.43,25.97,1.36,10.33,3.88,20.92,6.02,25.43,1.51,3.11,3.42,5.63,4.27,5.63.74,0,1.55-1.48,2.29-4.08.89-3.03,1.36-17.16.89-25.54-.85-15.26-4.97-32.42-8.42-35.13-2.76-2.17-4.31,0-5.47,7.73Z"/>
    <path class="cls-2" d="m121.47,349.21c-.97-4.23-1.09-5.51-1.24-13.78-.16-9.9.12-12.85,1.75-18.05,1.82-5.75,3.8-8.77,6.79-10.33,1.9-.97,2.95-.93,4.66.23,2.99,2.02,5.55,6.68,7.84,14.25,2.76,9.2,5.01,20.15,9.74,48.06,3.46,20.19,3.53,20.73,4.46,21.82l.74.89.04-.85c0-.5-.35-3.07-.78-5.71-.43-2.64-.82-6.52-.89-8.58l-.08-3.77,4.46-.04,4.46-.08.12-1.59.12-1.59-2.64-.85c-3.22-1.05-4.89-2.29-6.06-4.43-.82-1.55-.85-2.02-.82-11.34.04-16.73,2.21-25.85,7.92-33.27,5.32-6.87,14.48-9.24,21.74-5.59,1.94.97,3.42,3.3,3.77,6.02.12.89.31,1.59.47,1.59.12-.04.85-.93,1.59-2.02,1.51-2.25,3.53-3.8,4.89-3.8.5,0,1.01-.19,1.13-.39.31-.54-2.91-6.56-7.1-13.28-7.1-11.34-16.5-22.44-18.94-22.44-2.29,0-9.43,4.15-13.86,8.11-1.24,1.09-2.45,1.9-2.64,1.79-.19-.16-.35-1.09-.35-2.1,0-2.45-1.05-8.04-1.79-9.43-.5-1.01-.74-1.09-2.8-1.05-2.45.04-3.84.35-8.42,1.79-4.66,1.44-7.41,3.07-10.68,6.33-3.53,3.49-5.4,6.29-7.45,10.99-5.67,13.08-6.06,32.42-1.05,52.49,1.09,4.31,2.99,10.02,3.65,10.91.31.43.04-.82-.58-2.76-.58-1.94-1.59-5.59-2.17-8.15Z"/>
    <path class="cls-2" d="m176.44,374.49v2.02l2.06.47c1.09.27,3.18.54,4.58.66l2.56.19.47-1.24c.93-2.72.97-2.72-4.12-3.65-1.75-.35-3.61-.7-4.08-.82-1.28-.31-1.48.04-1.48,2.37Z"/>
    <path class="cls-5" d="m121.12,288.58c2.72-3.92,7.41-8.46,10.52-10.09,2.33-1.24,8.15-3.14,12.38-4.08,1.75-.39,6.6-.5,19.02-.47,14.56,0,17.28.12,21.16.74,2.45.43,4.58.78,4.74.78.12,0,3.53-3.11,7.57-6.87,4-3.77,8.85-8.11,10.79-9.71l3.46-2.83-2.68-.27c-1.51-.12-7.18-.43-12.62-.66-11.84-.5-14.75-.93-26.28-3.69-10.13-2.41-13.74-3.14-18.36-3.73-1.82-.23-6.6-.5-10.68-.62-9.43-.27-9.67-.16-12.93,5.67-3.34,6.02-6.68,20.38-7.65,32.8-.12,1.71-.31,3.8-.43,4.66-.23,1.55-.19,1.51,1.98-1.63Z"/>
    <path class="cls-2" d="m198.14,345.14c-1.32,0-1.48.74-.35,1.75,2.6,2.37,2.68,10.48.35,30.78l-.47,4.04,3.84,3.84c3.88,3.96,9.9,9.28,10.44,9.28.16,0,.19-.82.04-1.86-1.01-7.76-2.41-28.53-1.94-29.23.16-.27,5.2,4.62,12.19,11.72l11.96,12.19.85-1.86.82-1.86-2.48-5.9c-5.86-13.7-13.94-37.58-20.34-60.25-.93-3.42-1.82-6.29-1.9-6.37-.23-.23-1.36,2.68-1.59,4.15-.19,1.09-.08,1.32.62,1.51.54.12.82.5.82,1.13,0,1.05-2.6,8.42-5.01,14.13-4.85,11.69-5.55,12.81-7.84,12.81Z"/>
    <path class="cls-2" d="m193.8,318.74c-.58.19-1.4.74-1.82,1.24-2.1,2.52-6.64,13.51-9.05,21.86-2.56,8.85-4.46,18.67-3.96,20.65.27,1.2,1.09,1.48,6.09,2.06l4.19.5-.23,2.76c-.62,7.96-1.32,10.48-3.22,11.57-.93.58-1.36.54-4.7-.12-5.71-1.13-5.2-1.55-4.93,4.19.27,5.55,1.05,10.29,2.02,12.15.82,1.59,3.61,2.87,8.11,3.69,4.23.78,5.16.62,5.9-1.24,3.14-7.49,6.95-43.87,5.09-48.33-.62-1.51-1.9-2.37-4.15-2.83-2.72-.5-2.8-.58-2.52-1.67.12-.58.78-2.76,1.4-4.89l1.2-3.84,4,.27c4.62.31,4.77.23,6.33-3.26,1.63-3.73,4.35-11.22,4.58-12.77l.23-1.51-2.83-.23c-5.78-.43-10.68-.5-11.72-.23Z"/>
    <path class="cls-2" d="m158.7,375.26l-2.45-.31v1.59c0,2.37,1.13,10.48,1.75,12.69.31,1.09.93,2.45,1.36,2.99,1.09,1.36,5.05,2.6,9.36,2.87,3.3.23,3.38.19,4.04-.78.5-.78.74-2.45,1.01-6.95.19-3.26.54-8.81.74-12.34.82-11.92,3.49-24.96,7.88-37.85l2.76-8.15.16-5.51.16-5.51-1.63-1.16c-.85-.62-2.48-1.32-3.53-1.55-4-.85-8.97-.19-12.03,1.59-5.55,3.26-10.48,12.97-11.61,22.87-.47,3.96-.47,13.9-.04,16.23.62,3.11,2.41,4.62,6.72,5.78l2.45.66.12,3.03c.08,1.67-.08,4.27-.27,5.78-.58,4.27-1.44,4.77-6.91,4.04Zm4.93-34.01c0-3.07,2.41-7.73,4.43-8.54,1.24-.5,1.59-.47,2.72.43.78.58,1.01,1.13,1.01,2.21,0,1.9-1.63,7.88-2.48,9.2-.62.93-.89,1.05-2.1.82-2.02-.31-3.57-2.1-3.57-4.12Z"/>
    <path class="cls-2" d="m168.29,342.46c.54-1.05.5-1.44-.23-2.14-.31-.35-.85-.62-1.13-.62-.62,0-1.75,1.05-1.75,1.59,0,1.75,2.33,2.6,3.11,1.16Z"/>
    <path class="cls-3" d="m156.26,410.05c0,3.8,1.71,6.37,4.12,6.06,1.82-.19,2.68-1.86,2.83-5.59l.12-3.26-1.55-1.55c-3.11-3.11-5.51-1.2-5.51,4.35Z"/>
    <path class="cls-5" d="m144.38,441.03c-3.42-3.3-6.87-13.59-9.36-27.76-.54-3.18-.66-6.33-.7-17.66,0-13.51,0-13.82.93-16.46.97-2.87,3.14-5.67,4.35-5.67.97,0,.93-.31-.12-1.2-1.16-.93-1.94-.93-2.91.12-1.16,1.28-1.51,2.1-2.52,5.75-.85,3.14-.89,3.92-.89,16.11,0,13.94.27,16.77,2.56,27.56,2.6,12.46,6.41,21.16,9.24,21.16,1.13,0,1.01-.39-.58-1.94Z"/>
    <path class="cls-3" d="m169.88,410.05l1.71-.31-3.18-1.63c-1.79-.89-3.3-1.63-3.38-1.63-.12,0-.08,1.16.04,2.6.16,1.9,0,3.14-.43,4.39-.97,2.8-.66,3.11.54.5,1.24-2.68,2.21-3.49,4.7-3.92Z"/>
  </g>
</svg>